# xmcd
#
# Track frame offsets:
#	150
#	14315
#	27572
#	42485
#	56562
#	70552
#	83430
#	97532
#	112370
#	126807
#	140177
#	152625
#	164935
#	178267
#	191430
#	204950
#	218400
#	231390
#	243122
#	256117
#	269407
#	282110
#
# Disc length: 3931 seconds
#
# Revision: 2
# Processed by: cddbd v1.4b41PL1 Copyright (c) Steve Scherf et al.
# Submitted via: EZCDDA 4.3.2
#
DISCID=370f5916
DTITLE=Lucille Bogen (Bessie Jackson) - Complete Recorded Works volume 2
DYEAR=1900
DGENRE=
TTITLE0=They Ain't Walkin No More
TTITLE1=Dirty Treatin' Blues
TTITLE2=Sloppy Drunk Blues
TTITLE3=Alley Boogie
TTITLE4=Crawlin' Lizard Blues
TTITLE5=Struttin' My Stuff
TTITLE6=Black Angel Blues
TTITLE7=Tricks Ain't Walking No More
TTITLE8=Red Cross Man
TTITLE9=T and N O Blues
TTITLE10=My Baby Come Back
TTITLE11=Forty-Two Hundred Blues
TTITLE12=Walkin' Blues
TTITLE13=House Top Blues
TTITLE14=Baking Powder Blues
TTITLE15=Groceries On The Shelf
TTITLE16=Seabord Blues
TTITLE17=Roll and Rattler
TTITLE18=Superstitious Blues (Hooch House Blues)
TTITLE19=Mean Twister
TTITLE20=Troubled Mind
TTITLE21=New Muscle Shoals Blues
EXTD=
EXTT0=
EXTT1=
EXTT2=
EXTT3=
EXTT4=
EXTT5=
EXTT6=
EXTT7=
EXTT8=
EXTT9=
EXTT10=
EXTT11=
EXTT12=
EXTT13=
EXTT14=
EXTT15=
EXTT16=
EXTT17=
EXTT18=
EXTT19=
EXTT20=
EXTT21=
PLAYORDER=
